<?xml version="1.0" encoding="UTF-8" standalone="no"?>
<!-- Created with Inkscape (http://www.inkscape.org/) -->

<svg
   width="600"
   height="600"
   viewBox="0 0 158.75 158.75"
   version="1.1"
   id="svg5"
   inkscape:version="1.1.2 (b8e25be8, 2022-02-05)"
   sodipodi:docname="kb.svg"
   inkscape:export-filename="/Users/brandoncasey/Documents/kb.png"
   inkscape:export-xdpi="96"
   inkscape:export-ydpi="96"
   xmlns:inkscape="http://www.inkscape.org/namespaces/inkscape"
   xmlns:sodipodi="http://sodipodi.sourceforge.net/DTD/sodipodi-0.dtd"
   xmlns="http://www.w3.org/2000/svg"
   xmlns:svg="http://www.w3.org/2000/svg">
  <sodipodi:namedview
     id="namedview7"
     pagecolor="#ffffff"
     bordercolor="#666666"
     borderopacity="1.0"
     inkscape:pageshadow="2"
     inkscape:pageopacity="0.0"
     inkscape:pagecheckerboard="0"
     inkscape:document-units="mm"
     showgrid="false"
     inkscape:zoom="0.73240249"
     inkscape:cx="12.97101"
     inkscape:cy="774.84717"
     inkscape:window-width="1312"
     inkscape:window-height="969"
     inkscape:window-x="926"
     inkscape:window-y="25"
     inkscape:window-maximized="0"
     inkscape:current-layer="layer1"
     inkscape:snap-smooth-nodes="true"
     inkscape:snap-intersection-paths="true"
     inkscape:object-paths="true"
     width="600px"
     units="px" />
  <defs
     id="defs2" />
  <g
     inkscape:label="Layer 1"
     inkscape:groupmode="layer"
     id="layer1">
    <path
       style="fill:#008080;stroke-width:0.243136"
       d="m 60.0812,154.48553 c -5.864364,-1.51574 -10.693007,-2.7901 -10.730325,-2.83193 -0.03731,-0.0418 4.897159,-10.78963 10.965519,-23.88401 6.068347,-13.09438 11.006399,-23.83056 10.973455,-23.85817 -0.0329,-0.0277 -5.420908,6.88394 -11.973234,15.35899 -6.552338,8.47505 -11.968202,15.40339 -12.035248,15.39631 -0.06708,-0.007 -4.149959,-5.55971 -9.073143,-12.33917 -4.923173,-6.77945 -9.105222,-12.53464 -9.293421,-12.7893 -0.326215,-0.44141 -0.464552,-0.38153 -2.962442,1.28234 -1.441136,0.95995 -2.815282,1.89416 -3.053664,2.07601 -0.402624,0.30716 -0.249612,0.63632 2.152956,4.63138 2.879452,4.78803 2.530953,4.59668 3.894283,2.13821 0.389245,-0.70193 0.767269,-1.27633 0.840049,-1.27648 0.166806,-2.4e-4 3.088502,3.933 3.267006,4.3982 0.151055,0.39363 -5.261032,5.92771 -5.654467,5.78191 -0.13388,-0.0496 -3.040909,-3.63704 -6.460091,-7.97207 l -6.216683,-7.88186 6.311903,-6.49487 c 3.471534,-3.57219 6.451518,-6.610765 6.622175,-6.752401 0.236489,-0.196276 2.589407,2.139471 9.894187,9.822031 7.632788,8.02751 9.644108,10.01683 9.879623,9.77153 0.162643,-0.1694 4.222703,-6.38033 9.022376,-13.80206 4.799668,-7.421737 8.939381,-13.819433 9.199368,-14.217113 l 0.472702,-0.723049 -0.503073,0.358349 c -0.276684,0.197085 -4.912836,4.46126 -10.302555,9.475943 -5.389715,5.01468 -9.922726,9.14687 -10.073358,9.18264 -0.150624,0.0357 -8.534148,-8.19745 -18.630052,-18.296015 L 8.2588652,72.679843 27.334033,53.603507 C 37.825376,43.111521 46.448569,34.566544 46.496685,34.61465 c 0.125977,0.125978 11.45955,26.014712 11.405718,26.053556 -0.08813,0.06359 -19.501413,6.886535 -19.792698,6.956282 -0.163268,0.03915 -1.056119,-0.855772 -1.984101,-1.988613 l -1.687247,-2.059702 0.460729,-0.614799 c 0.253397,-0.338133 1.319689,-1.537064 2.369541,-2.664273 l 1.908803,-2.049483 0.542974,2.34971 0.542965,2.349711 0.773545,-0.324322 c 0.425451,-0.178375 2.983311,-1.283262 5.68413,-2.455306 l 4.910584,-2.130984 -3.174909,-6.354689 c -1.746197,-3.495078 -3.202855,-6.385704 -3.237021,-6.42361 -0.08721,-0.09676 -24.864976,27.007218 -24.938693,27.280005 -0.03317,0.122642 5.508603,5.175845 12.314988,11.229352 l 12.375242,11.006372 9.08055,-9.065249 9.080544,-9.06525 -1.716341,-3.744468 -1.716341,-3.744486 2.409038,-2.431368 2.409046,-2.431368 L 60.268793,44.605001 56.019855,24.918329 67.697429,13.240764 79.374998,1.5631804 91.052582,13.240764 102.73015,24.918329 98.481209,44.605001 94.23226,64.291668 l 2.409056,2.431368 2.409039,2.431368 -1.716342,3.744486 -1.716341,3.744468 9.080538,9.06525 9.08055,9.065249 12.37524,-11.006372 c 6.80638,-6.053507 12.38635,-11.064926 12.39994,-11.136493 0.0302,-0.15917 -24.9364,-27.469656 -25.02364,-27.372864 -0.0342,0.03786 -1.49083,2.928532 -3.23703,6.42361 l -3.1749,6.354689 4.91058,2.130984 c 2.70082,1.172044 5.25766,2.276508 5.68187,2.45436 l 0.77129,0.323375 0.53709,-2.357632 0.53708,-2.357632 1.91695,2.058352 c 1.05432,1.132087 2.12428,2.335007 2.37768,2.67314 l 0.46073,0.614799 -1.68725,2.059702 c -0.92799,1.132832 -1.82083,2.027714 -1.9841,1.988613 -0.29129,-0.06975 -19.70458,-6.892691 -19.7927,-6.956282 -0.0538,-0.03887 11.27974,-25.927578 11.40572,-26.053556 0.0482,-0.04806 8.67131,8.496871 19.16264,18.988857 l 19.07518,19.076336 -18.35617,18.361032 c -10.09592,10.098565 -18.47944,18.331765 -18.63007,18.296015 -0.15063,-0.0358 -4.68364,-4.16796 -10.07334,-9.18264 -5.389723,-5.014683 -10.025867,-9.278858 -10.302559,-9.475943 l -0.503073,-0.358349 0.472702,0.723049 c 0.259995,0.397671 4.3997,6.795376 9.19937,14.217103 4.79965,7.42174 8.85972,13.63267 9.02237,13.80207 0.23551,0.2453 2.24683,-1.74402 9.87962,-9.77153 7.30478,-7.68256 9.65769,-10.018307 9.89419,-9.822031 0.17065,0.141627 3.15065,3.180201 6.62217,6.752391 l 6.31191,6.49488 -6.21667,7.88186 c -3.41918,4.33503 -6.32624,7.92246 -6.46011,7.97207 -0.39344,0.1458 -5.80552,-5.38828 -5.65447,-5.78191 0.17851,-0.4652 3.1002,-4.39851 3.267,-4.3982 0.0728,1.4e-4 0.45082,0.57455 0.84006,1.27648 1.36334,2.45847 1.01482,2.64982 3.89429,-2.13821 2.40257,-3.99506 2.55557,-4.32422 2.15296,-4.63138 -0.23839,-0.18185 -1.61255,-1.11606 -3.05369,-2.07601 -2.49788,-1.66387 -2.63622,-1.72375 -2.96242,-1.28234 -0.18821,0.25466 -4.37026,6.00985 -9.29343,12.7893 -4.92318,6.77946 -9.0061,12.33208 -9.07314,12.33917 -0.0671,0.007 -5.48291,-6.92126 -12.035243,-15.39631 -6.552326,-8.47505 -11.940281,-15.38661 -11.973225,-15.35899 -0.0329,0.0277 4.905108,10.76379 10.973446,23.85817 6.068352,13.09438 11.003182,23.84184 10.966282,23.88323 -0.20112,0.22568 -21.664248,5.58123 -21.805994,5.4411 -0.41607,-0.41131 -6.292312,-14.95469 -6.111593,-15.12585 0.386469,-0.36601 6.947414,-4.15008 7.038178,-4.05931 0.265197,0.26519 3.254462,5.10955 3.254462,5.27412 0,0.10664 -1.043714,0.4526 -2.319377,0.76881 -1.275654,0.3162 -2.342415,0.64338 -2.37058,0.72705 -0.02812,0.0837 0.798246,1.46623 1.836456,3.07231 l 1.887658,2.92016 4.433875,-1.64165 c 2.556876,-0.9467 4.407429,-1.7606 4.371379,-1.9226 -0.08271,-0.37172 -20.082309,-31.37889 -20.239355,-31.37889 -0.157038,0 -20.156636,31.00717 -20.23935,31.37889 -0.03602,0.162 1.814502,0.9759 4.371378,1.9226 l 4.433885,1.64165 1.855964,-2.87114 c 1.020786,-1.57913 1.847188,-2.96166 1.836455,-3.0723 -0.01075,-0.11064 -1.063231,-0.45988 -2.338884,-0.77608 -1.275664,-0.31621 -2.319386,-0.66217 -2.319386,-0.76881 0,-0.1645 2.989218,-5.00887 3.254277,-5.27394 0.12982,-0.12982 7.049192,3.9706 7.123644,4.22146 0.09959,0.33556 -6.099089,14.99528 -6.36617,15.05587 -0.133724,0.0303 -5.041248,-1.18499 -10.905612,-2.70074 z M 74.512277,77.561774 c 0,-0.123174 -0.614431,-1.572875 -1.365398,-3.221554 -0.750967,-1.64867 -1.68075,-3.69117 -2.066199,-4.538855 l -0.700811,-1.541274 -1.641622,1.15621 c -0.902886,0.635916 -1.674905,1.180434 -1.715596,1.210024 -0.04071,0.02959 0.491541,1.296973 1.182721,2.816412 0.691181,1.51943 1.409755,3.118193 1.596842,3.552796 l 0.340146,0.790196 h 2.184954 c 1.201725,0 2.184963,-0.10078 2.184963,-0.223955 z m 15.70916,-3.388149 c 0.870576,-1.919794 1.54891,-3.515413 1.507402,-3.545821 -0.04154,-0.03042 -0.81419,-0.575587 -1.717076,-1.211503 l -1.641622,-1.15621 -0.70082,1.541265 c -0.385449,0.847694 -1.315242,2.890185 -2.066208,4.538864 -0.750958,1.648679 -1.365389,3.102487 -1.365389,3.23068 0,0.136655 0.910256,0.204151 2.20042,0.163166 l 2.200429,-0.06993 z"
       id="path366-2" />
  </g>
</svg>
